<?xml version="1.0" standalone="yes"?>
<svg xmlns="http://www.w3.org/2000/svg" width="1920" height="1080">
<path style="fill:#7289da; stroke:none;" d="M0 0L0 1080L1920 1080L1920 0L0 0z"/>
<path style="fill:#959eec; stroke:none;" d="M743 39.4677C737.654 40.4694 732.502 42.8904 728 45.8904C696.217 67.0704 706.789 117.751 744 125.192C749.22 126.236 754.758 126.363 760 125.381C796.072 118.622 808.197 71.6191 780 48.3287C775.065 44.2527 769.146 41.6482 763 40.0154C756.926 38.4016 749.185 38.3087 743 39.4677M1738 119C1729.96 116.055 1722.5 107.637 1714 106.452C1708.74 105.718 1705.69 111.494 1708.75 115.671C1711.89 119.972 1718.56 122.461 1723 125.204C1724.95 126.406 1727.85 127.793 1728.55 130.185C1729.34 132.859 1726.87 135.863 1725.6 138C1722.8 142.707 1716.87 149.357 1716.62 154.995C1716.39 160.34 1722.7 162.263 1726.47 159.258C1732.46 154.489 1737.75 142.87 1741 136C1746.96 139.65 1752.96 143.276 1759 146.796C1761.62 148.324 1764.73 150.357 1767.89 149.214C1772.2 147.654 1772.51 142.418 1769.68 139.379C1764.53 133.84 1754.04 128.579 1747 126C1751.32 120.056 1755.52 113.505 1758.95 107C1760.33 104.372 1761.66 101.059 1759.97 98.2284C1757.62 94.2864 1753.08 95.3189 1750.38 98.1489C1745.29 103.476 1740.52 112.123 1738 119M691 109.468C668.258 113.655 664.844 147.031 687 155.03C690.89 156.435 695.955 156.382 700 155.671C714.414 153.139 722.153 136.116 716.467 123C713.551 116.273 707.858 112.269 701 110.299C697.645 109.335 694.472 108.829 691 109.468z"/>
<path style="fill:#8594e3; stroke:none;" d="M718 128L718 137C719.256 134.006 719.256 130.994 718 128z"/>
<path style="fill:#959eec; stroke:none;" d="M731.015 132.858C719.074 137.828 726.519 157.082 738.995 152.258C752.051 147.21 743.708 127.575 731.015 132.858M282 399.439C275.898 400.4 270.316 402.772 265 405.877C260.146 408.711 255.898 412.674 252.329 417C225.348 449.704 255.163 501.511 297 494.675C303.946 493.54 311.146 490.792 317 486.895C321.967 483.588 326.588 478.967 329.895 474C352.902 439.443 322.995 392.984 282 399.439z"/>
<path style="fill:#8b9ae3; stroke:none;" d="M1140 470C1141.51 470.683 1142.31 470.826 1144 471C1142.49 470.317 1141.69 470.174 1140 470z"/>
<path style="fill:#969ef0; stroke:none;" d="M1101.04 472.176C1097.5 473.485 1096.25 477.91 1094.86 481C1091.56 488.33 1089.3 497.916 1083.79 503.907C1077.02 511.264 1067.03 512.209 1058 514.975C1054.26 516.121 1048.03 516.616 1046.66 521.058C1045.45 525.011 1049.45 528.473 1052 530.83C1058.59 536.898 1067.18 542.109 1071.77 550C1076.17 557.564 1074 569.544 1074 578C1074 581.19 1073.02 586.723 1075.18 589.393C1078.52 593.523 1086.89 586.935 1090 585.15C1098.28 580.394 1106.69 572.648 1117 574.228C1123.46 575.217 1130.92 579.078 1137 581.576C1140.48 583.003 1145.09 585.02 1148.85 583.396C1153.04 581.59 1151.51 576.436 1150.79 573C1148.9 564.033 1145.02 554.241 1146.19 545C1147.32 536.039 1155.28 528.799 1160.58 522C1162.76 519.191 1167.02 515.046 1166.54 511.133C1165.68 504.199 1151.58 506.266 1147 505.83C1141.46 505.303 1135.02 505.191 1130 502.558C1122.25 498.495 1117.68 490.013 1113 483C1110.72 479.576 1106.37 470.208 1101.04 472.176z"/>
<path style="fill:#c1c1f8; stroke:none;" d="M1129 499C1136.37 497.084 1143.46 489.947 1146.47 483C1147.64 480.301 1148.8 476.115 1146.97 473.434C1144.98 470.51 1140.67 470.862 1138.04 472.604C1133.47 475.643 1131.26 481.895 1130.04 487C1129.09 490.984 1129 494.929 1129 499z"/>
<path style="fill:#93a0e6; stroke:none;" d="M1148 474L1148 479C1148.83 476.969 1148.83 476.031 1148 474z"/>
<path style="fill:#c1c1f8; stroke:none;" d="M1080 503C1079.93 494.907 1076.24 486.699 1069.91 481.394C1067.14 479.077 1062.57 476.908 1059.32 479.607C1055.69 482.616 1057.89 487.779 1059.97 490.996C1064.28 497.662 1072.07 502.765 1080 503z"/>
<path style="fill:#919fe5; stroke:none;" d="M1128 492L1128 497C1128.83 494.97 1128.83 494.031 1128 492z"/>
<path style="fill:#959eec; stroke:none;" d="M218 494.518C213.331 495.514 208.777 497.62 205 500.529C198.169 505.793 192.767 513.37 191.326 522C187.396 545.535 208.234 567.371 232 562.331C237.435 561.178 242.679 559.235 246.999 555.671C270.044 536.657 260.292 499.888 231 494.616C226.793 493.859 222.206 493.62 218 494.518z"/>
<path style="fill:#94a0e6; stroke:none;" d="M1076 503C1077.51 503.683 1078.31 503.826 1080 504C1078.49 503.317 1077.69 503.174 1076 503z"/>
<path style="fill:#c1c1f8; stroke:none;" d="M1151.34 545.028C1147.28 547.898 1152.49 552.114 1155 553.648C1160.25 556.845 1170.69 560.876 1176.57 556.821C1181.08 553.704 1177.46 548.397 1173.98 546.417C1169.3 543.754 1156.09 541.663 1151.34 545.028z"/>
<path style="fill:#959eec; stroke:none;" d="M160 547.532C133.409 553.866 143.443 595.241 170 589.481C197.917 583.426 187.579 540.964 160 547.532z"/>
<path style="fill:#99a4e8; stroke:none;" d="M1055 553C1056.51 553.683 1057.31 553.826 1059 554C1057.49 553.317 1056.69 553.174 1055 553z"/>
<path style="fill:#c1c1f8; stroke:none;" d="M1059 553.439C1053.68 554.267 1047.21 555.065 1043.43 559.329C1038.27 565.169 1043.31 570.749 1050 569.667C1055.82 568.727 1061.85 565.043 1065.94 560.907C1072.9 553.876 1065.43 552.438 1059 553.439z"/>
<path style="fill:#abb0ef; stroke:none;" d="M1166 558C1168.61 559.098 1171.16 558.993 1174 559C1171.39 557.902 1168.84 558.007 1166 558z"/>
<path style="fill:#98a3e8; stroke:none;" d="M1045 570C1046.77 570.779 1048.04 570.912 1050 571C1048.23 570.221 1046.96 570.088 1045 570z"/>
<path style="fill:#94a0e6; stroke:none;" d="M1113.67 578.333C1113.22 578.778 1114.28 578.722 1114.33 578.667C1114.78 578.222 1113.72 578.278 1113.67 578.333z"/>
<path style="fill:#c1c1f8; stroke:none;" d="M1112.49 580.086C1107.18 583.305 1107.98 599.081 1109.89 603.995C1111.13 607.161 1114.23 610.467 1117.89 608.762C1125.14 605.386 1121.72 591.578 1119.53 586.001C1118.56 583.514 1116.1 577.903 1112.49 580.086z"/>
<path style="fill:#97a3e7; stroke:none;" d="M1108 593L1108 602C1109.26 599.006 1109.26 595.994 1108 593z"/>
<path style="fill:#96a3e7; stroke:none;" d="M1122 595L1122 604C1123.26 601.006 1123.26 597.994 1122 595z"/>
<path style="fill:#959eec; stroke:none;" d="M135 597.653C117.19 603.239 126.083 630.438 144 625.057C161.779 619.717 152.82 592.063 135 597.653M1780 740C1776.92 736.644 1774.36 732.374 1770.83 729.499C1766.3 725.819 1759.38 723.957 1754 721.8C1745.6 718.429 1736.95 713.541 1728 712C1732.25 722.996 1743.41 730.148 1748 741L1738 742C1741.49 748.152 1751.72 750.835 1758 753.576C1763.35 755.912 1768.71 758.301 1774 760.78C1776.7 762.047 1779.9 764.219 1783 764.153C1787.46 764.058 1791.13 758.87 1794 756C1802.29 747.715 1815.02 738.677 1820 728L1809 729C1810.67 717.712 1817 707.454 1818 696C1812.8 698.425 1809.26 702.955 1805 706.714C1798.49 712.457 1789.48 718.71 1784.73 726.004C1782.16 729.943 1781.05 735.46 1780 740z"/>
<path style="fill:#969ef0; stroke:none;" d="M1222.6 924.176C1220.29 925.463 1221.04 929.917 1221.29 932C1222.02 938.375 1223.18 945.602 1222.9 952C1222.61 958.716 1214.62 963.545 1210 967.576C1208.05 969.284 1202.35 973.215 1204.75 976.397C1206.24 978.375 1209.85 978.006 1212 977.995C1217.8 977.966 1226.47 974.792 1231.56 978.603C1237.51 983.058 1241.72 991.258 1246.4 996.995C1247.88 998.807 1250.75 1003.35 1253.68 1001.82C1256.23 1000.49 1255.13 996.24 1255.04 994C1254.75 987.091 1252.8 979.881 1253.1 973.001C1253.39 966.354 1261.44 961.563 1266 957.576C1267.96 955.858 1273.63 951.765 1271.25 948.603C1269.57 946.373 1265.35 947.013 1263 947.286C1257.66 947.904 1248.98 949.798 1244.29 946.397C1238.22 941.991 1233.84 933.788 1229.11 928.019C1227.79 926.397 1225.16 922.754 1222.6 924.176z"/>
<path style="fill:#a9a7f5; stroke:none;" d="M1201 945C1198.3 944.99 1195.5 945.182 1193 943.977C1190.69 942.864 1188.13 939.471 1185.32 939.921C1182.5 940.372 1183.13 945.042 1182.4 946.985C1181.59 949.127 1179.93 950.574 1178.64 952.405C1178.03 953.28 1177.59 954.429 1178.18 955.436C1179.38 957.485 1183.06 956.872 1184.99 957.602C1187.71 958.634 1189.92 962.372 1192.94 962.364C1194.49 962.36 1195.26 961.172 1195.69 959.851C1197.24 954.985 1200.24 949.981 1201 945z"/>
<path style="fill:#8492e3; stroke:none;" d="M1192 944C1194.61 945.098 1197.16 944.993 1200 945C1197.39 943.902 1194.84 944.007 1192 944z"/>
<path style="fill:#959eec; stroke:none;" d="M487 965.557C479.58 967.453 472.677 973.071 466 976.691C451.946 984.311 437.962 992.071 424 999.86C417.658 1003.4 406.671 1006.89 405.229 1015C403.585 1024.25 411.375 1028.58 418 1033C433.23 1043.15 448.718 1052.92 464 1063C469.771 1066.8 477.57 1073.59 484.999 1071.34C494.165 1068.57 494.061 1056.92 494.83 1049C496.256 1034.33 497.529 1019.64 499.285 1005C500.443 995.356 502.977 984.719 501.891 975C501.05 967.47 494.005 963.768 487 965.557z"/>
<path style="fill:#a9a7f5; stroke:none;" d="M1215.6 987.176C1212.83 988.729 1214.91 993.525 1214.51 995.911C1214.09 998.46 1211.99 1000.02 1210.64 1002.07C1210.02 1003.02 1209.58 1004.32 1210.18 1005.4C1211.49 1007.79 1216.38 1006.95 1218.54 1008.6C1220.6 1010.19 1224.03 1017.33 1227.44 1014.91C1230.12 1013.01 1228.27 1008.62 1228.6 1006C1228.9 1003.62 1230.4 1002.06 1231.44 1000C1232.12 998.651 1232.85 997.041 1231.91 995.603C1230.43 993.331 1226.48 994.259 1224.32 992.972C1222.02 991.598 1218.94 985.301 1215.6 987.176z"/>
<path style="fill:#959eec; stroke:none;" d="M513.228 1006.76C509.649 1008.25 510.106 1012.83 509.715 1016C508.649 1024.65 507.684 1033.33 506.831 1042C506.514 1045.22 505.166 1049.74 508.434 1051.97C511.521 1054.08 515.952 1052.17 519 1051C527.016 1047.9 535.209 1044.79 542.985 1041.13C549.805 1037.93 549.112 1033.18 543.956 1028.43C537.825 1022.77 531.258 1017.56 525 1012.05C522.043 1009.45 517.63 1004.93 513.228 1006.76z"/>
</svg>
